<svg id="visual" viewBox="0 0 600 900" width="600" height="900" xmlns="http://www.w3.org/2000/svg"
    xmlns:xlink="http://www.w3.org/1999/xlink" version="1.1">
    <rect x="0" y="0" width="600" height="300" fill="transparent"></rect>
    <g transform="translate(600, 0)">
        <path
            d="M0 297.5C-57.2 292.7 -114.4 287.9 -148.7 257.6C-183.1 227.4 -194.7 171.7 -215.6 124.5C-236.6 77.3 -267 38.7 -297.5 0L0 0Z"
            fill="#492c1a"></path>
        <path
            d="M0 198.3C-38.1 195.1 -76.2 191.9 -99.2 171.7C-122.1 151.6 -129.8 114.4 -143.8 83C-157.8 51.6 -178 25.8 -198.3 0L0 0Z"
            fill="#b95d19"></path>
        <path
            d="M0 99.2C-19.1 97.6 -38.1 96 -49.6 85.9C-61 75.8 -64.9 57.2 -71.9 41.5C-78.9 25.8 -89 12.9 -99.2 0L0 0Z"
            fill="#f7770f"></path>
    </g>
</svg>